<svg xmlns="http://www.w3.org/2000/svg" viewBox="0 0 101.6 93.5" fill="#292b2f"><path d="M91.5 60.5 93.3 50c0-.3.5-.6.8-1l.6 1.2c1 1.6 2.2 3 3.3 4.6.3-.3.9-.7.9-1-.4-3.3-1-6.6-1.1-10 0-4.5-2.2-8-4.9-11.2-3.3-4-7.3-7.5-10.8-11.3-.6-.7-.3-2.3-.3-3.5l.3-2c.5.4 1.1.7 1.6 1.2 3.3 3.6 6.5 7.4 9.9 11 .2.2 1.6-.5 2.4-1 .5-.3 1-.8 1.4-1.3.3.7 1 1.3 1 2 .2 1.9 0 3.8.3 5.8 0 .7.9 1.3 1.3 2 .6.9 1.6 1.8 1.6 2.6-.1 3.2-.6 6.3-.8 9.5-.2 3.8.5 7.8-.5 11.4a47.3 47.3 0 0 1-6.2 14c-2.9 4.3-7 7.9-11 11.3-2.4 2-5.5 3.4-8.5 4.8-8.6 4-17.8 5-27.2 4.3a43 43 0 0 1-15.3-3.5c-2.4-1.2-2.2-2.5-2.4-4.3-.2-1.3-1-2.4-1.5-3.6-.2-.5-.2-1-.2-1.5 0-2.5.4-5-.1-7.5-.3-1.5-2.2-2.6-3.3-4-.4-.6-.8-2-.5-2.3 2-2.5 4.2-4.9 6.5-7.2.3-.3 1.2-.2 1.7 0l5.2 2.7 5.5 3c.2.1.3.8.2 1l-8.4 9.2a80.3 80.3 0 0 0-4.6 5.7c-.7 1-.6 1.8 1 2.4a53.5 53.5 0 0 0 23 2.8c1.7 0 3.5-.8 5.2-1.3.3-.1.7-.5.8-.9l3-10.2.7-.6c.2 0 .6.2.7.4 1 2.4 1.9 4.9 3 7.2.3.7 1.4 1 2 1.4.3-.4.7-.9.9-1.4l2.8-12.6.6-1 .8.7 6 8.5.6.6c.2-.4.4-.7.4-1L83.5 62c0-.5.3-1 .5-1.6.6.5 1.5.7 1.9 1.3 1.2 2 2.2 4.3 3.4 6.3.3.5 1.2.7 1.8.7.2 0 .7-.9.7-1.3v-7h-.3z"/><path d="m48.9 17.8 15 6.5 13.7 6 6.5 3c.2.1.3.5.4.7-.3.2-.6.5-.9.5-5.5-1-7.4 3.6-10.2 6.7-1.8 2-3.5 4.3-5.2 6.5l-.6 1c-1.6 2.4-2.9 5-4.8 7-2.7 2.6-5.8.3-8.5-.3-4-1-8-2.2-11.6-4-6-3-11.7-6.5-17.5-9.9-2.1-1.2-4-2.8-6-4.3-1-.8-1.7-1.4-.3-2.7l14.3-14.2c3-3 6.3-5.7 11.2-3.7 1.2.5 2.6.5 4 .8.2 0 .3.2.5.4-.2 0-.4.1 0 0zm-6.4 6.6c-1.1 1-2.5 2.1-3.6 3.4-.9 1-2.6 2.1-.8 3.4 1.3 1 3 1.2 4.4 1.8.6.2 1.6.5 1.6.8 0 .7-.4 1.4-.7 2-.8 1.5-2.5 3.8-2.1 4.2 1.4 1.4 3.4 2.3 5.3 3.4l.5-.3c1.1-1.5 2.4-2.8 3.2-4.4.9-1.6 2-1.5 3.2-1 1.8.8 3.6 1.7 5.4 2.3.5.2 1.2 0 1.6-.4 1.3-1.3 2.6-2.6 3.7-4.1.4-.5.3-1.9-.1-2.1-1-.8-2.4-1.4-3.7-1.8-2.2-.7-2.7-1.7-1-3.3 1.4-1.4 1.2-2.5-.4-3.4-1.2-.8-2.5-1.4-3.9-1.8-.5-.2-1.4 0-1.8.3-1 .8-1.7 2-2.7 2.9-.6.4-1.7.7-2.5.4-1.8-.5-3.5-1.4-5.6-2.3z"/><path d="M2.8 26.6V18c0-.3.3-.7.5-1l.5.9 3.6 6.5c.1.2.4.3.7.5l.2-.7.2-2.2L9.7 11c0-.4.4-.8.7-1.1l.8 1 4.4 7.2c.1.1 1.3-.1 1.4-.4.6-2 1-4.2 1.5-6.4L20 3.2c0-.2.4-.6.4-.5.3.1.7.3.8.6l4.4 7.5c.2.4 1 .8 1.3.7.6 0 1.4-.5 1.5-1L31.3 2c.4-.9.8-1.6 1.7-.1.9 1.6 1.9 3.3 3.3 4.3 1 .7 3.4.8 4.3 0C42 5 42.7 3 43.7 1.3c.8-1.3 1.8-2 2.5-.2 2 5 6.3 5.6 10.8 6.2 4.2.6 8.2 1.9 12.3 3 3 1 3.3 2.5 1.4 4.4-.3.3-1.4-.1-2.2-.3-2-.5-4-1.3-6.1-1.5-5.2-.6-10.4-1.5-15.6-1.3-4.9.3-9.8 1.8-14.6 3a24 24 0 0 0-7 2.8c-5.2 3.4-10.5 6.7-14 12.1-.5 1-1.2 1.8-1.9 2.6-.1.2-.5.3-.6.2-.2 0-.5-.4-.4-.6L9 29l.2-1.8-.9 1.2a27 27 0 0 0-4.2 16.8l.2 1c.3-.2.6-.5.9-.5.5.1 1.4.3 1.5.6.2.8.2 1.8 0 2.6-.7 8.7 2.2 16 8 22.4l2 2.3c.1 0 .2.4.1.5-1.1 1.4-1.6 2.8-.3 4.3l-.7.4c-.5 0-1.2 0-1.4-.2-3.2-4.4-6.8-8.6-9.3-13.4A34 34 0 0 1 1 49.2c.1-4.3-.6-8.6-.9-13 0-.6.3-1.3.4-2l1 1.1c.2.2.7.3.7.2.2-.2.4-.5.4-.8v-8.1h.3z"/><path d="M86.1 42c0 .7.2 1.6 0 2.4-.4 1.6-.7 3.3-1.5 4.7a64.5 64.5 0 0 1-5.2 8c-2.5 3.3-5.7 6-8 9.5-2 3-5 3.6-8 4.6-.6.2-1.6-.3-2.4-.7-4.8-2-9.6-3.8-14.3-6-6.5-3-13-6.5-19.4-9.6-2.6-1.2-5.7-2-6.5-5-.7-3-.7-6-1-9 0 0 1-.4 1.2-.2l14.8 9.1c4.7 2.9 9.6 5 15 6.4 2.8.6 5.5 2 8.4 2.8 3.6 1 4.8-2.1 6.5-4.1L76 41.7l1-.5c0 .5 0 1.2-.2 1.4-3.5 2.9-5.4 7-8 10.5-1.4 2-3 4-4 6-.6 1-.3 2.4-.4 3.6l-.1 4.6c0 .5.4 1.3.8 1.4.6.1 1.6 0 2-.3 2.7-2.5 5.5-5 8-7.7 1.9-2.2 3.4-4.8 5-7.2 1.5-2 3.6-3.7 4.2-5.9.6-2.5 0-5.5 0-8.2-.1-1-.7-2-.8-3.1 0-.4.7-1.2.9-1.1.5.1 1.4.6 1.4 1 .2 1.9.1 3.8.1 5.7h.1zM78.5 15.7l2 6v.8c0 2.5-4.9 5.5-7.2 4.5l-3.6-1.5c-1.5-.8-3-1.8-4.4-2.7-.2-.1-.2-.7-.1-.8l3.8-4.4c.4-.3 1-.5 1.6-.5 1.9 0 2.6-1 2.6-2.7v-3.6c.1-1.2 0-2.6 2-2.5 1.9 0 3.4.7 3.8 2.7.3 1.5 0 3 0 4.5l-.5.2zM25.8 79.7v4c-.3 2.4.2 4.4 2.6 5.6.3.1.4 1 .3 1.3-.1.2-1 .5-1.2.3a420 420 0 0 1-12.8-8c-.4-.2-.3-1.4-.4-2.1l1.4.8c.5.1 1.2.4 1.5.2.5-.4 1-1 1-1.6.3-2.7.3-5.4.3-8.1.1-2.6 1.8-3.5 4.1-2.3 2.3 1.1 3.5 2.6 3.2 5.3-.2 1.5 0 3 0 4.6zM22 72.3c-1 1.4-2 2.2-1.8 2.7.2.9 1 1.6 1.6 2.3.7-.5 1.8-1.1 1.9-1.8 0-.7-.8-1.6-1.7-3.2z"/></svg>