<svg xmlns="http://www.w3.org/2000/svg" xml:space="preserve" style="enable-background:new 0 0 88.533 72.991" viewBox="0 0 88.5 73"><path d="M9.6 20.6c-1.4-.5-2.8-.8-4.2-1.4-.5-.1-.7-.7-1-1 .3-.4.7-.7 1.2-1l7.1-3.4c4.4-2 8.8-3.7 13.1-5.6 5.6-2.5 11.1-5 16.6-7.7 1.4-.7 2.3-.9 2.8.9l.6 1.9c.5 1.4.1 2-1.5 2.5a49.4 49.4 0 0 0-9.4 4.6c1-.3 2.1-.4 3.1-.8A273 273 0 0 0 46 7c1.3-.4 2-.4 2.6 1 1.6 4.3 3.6 8.5 5.2 12.7.2.5-.6 1.9-1 2-8.6 1-17.2 2.3-25.8 2.6-4.6.2-9.3-1.5-14-2.4-.5-.1-1.1-.3-1.8-.1 4.2 1.3 8.4 2.5 12.5 4 3.4 1.2 6.6 2.8 10 4C37.4 32 41.3 33 45 34.3c3.3 1 6.5 3 10 3.3 4.7.4 9.6-.4 14.5-.7.2 0 .5-.2.6-.5 3.7-6.1 8-4.8 12.3-1.6 3.7 2.6 6.4 6.2 6 11.2-.3 3.4-3.1 5.2-6.2 3.9-.5-.2-1.3.3-2 .3-1 .1-2 .4-2.9 0-.8-.4-2.3-1.1-.8-2.6.1-.1-.2-.8-.4-1-3.7-3.8-8.3-5-13.3-5.5-3-.3-5.5.4-7.7 2.4-2.7 2.4-5.2 2.6-9 1.3-13-4.8-24-13-36-19.4l-3.8-2.2h-1c.3.4.3 1 .6 1.2 4 3.3 8 6.7 12 9.8 6.3 4.9 12.7 9.6 19.2 14.4 1.2.9 2.6 1.5 4 2.3.3.2.8.7.7 1-.1.3-.6.8-1 .8-5.7 1-10.6 3.8-15.3 7-1.4 1-2 .7-2.7-.7a1592 1592 0 0 0-12.7-24.4C8.3 31 6 27.8 4.2 24.2c-1-2-1.7-4.3-4-5.4l-.2-.6h1L9.3 21l.2-.4zm70 23.4c2.7 0 4.6-1.7 4.2-3.6-.6-2.8-4.2-5.7-7-5.5-1.8.2-3.6 1-3.6 3-.1 3.2 3.2 6.1 6.4 6zm-32.2-8.4c-2.7 0-4.2 1.4-4.2 3.2 0 1.6 2.3 3.6 4 3.6 1.4 0 3.6-2 3-3.3-.6-1.5-2-2.6-2.8-3.5z"/><path d="M72.9 73c-7.6.4-12.7-4.8-15-11.5-1-2.9-1-6-1.7-9-.2-.7-1-1.5-1.6-1.7-1-.2-2.2 0-3.4 0C49 51 45.6 49 45 47c0 0 .2-.5.4-.5.3 0 .5.2.8.4 2.7 1.6 5.3 1.9 8-.4 1.2-1.1 7.2-.3 8.5 1L77.8 63l.3.3c1.5 1.9 3.5 4 2.3 6.3-1.2 2.3-3.8 3.2-6.5 3.3h-1zM70 70.3l2.5-.3c3-.8 3.5-1.8 1.6-4.4-1.1-1.7-2.3-3.3-3.6-5-2.6-3.3-5.3-6.6-8.1-9.8-1.2-1.4-2.4-1.3-3 .8-1.7 6 1.4 13.9 7.1 17.4 1.2.7 2.6 1 3.5 1.3zM4.5 29v-1.7c0-.3.2-.5.3-.8l.5.6 5.1 11.5L16 50.5l5 11.4c.1.3-.2 1.3-.5 1.4-3 1-6 2-9.2 2.7-.3 0-1.2-1-1.3-1.5L7 45.2 5 31.7l-.5-2.6zM34.5 27.5c.9 0 1.7.2 2.5.1 4.6-.7 7.8 1.4 10.4 5l.4.8h-1l-5.2-2c-2-.5-4-.9-5.9-1.6-.8-.3-1.5-1.1-2-1.9-.3-.2 0-.8 0-1.2l.8.8zM19.6 9.3c-.5-.3-1-.4-1.2-.8-1.5-2-3-4-4.3-6-.2-.3-.1-.9-.2-1.4.4.2.8.3 1.1.6 2 1.6 3.8 3.2 5.6 5 .4.3.9 1.2.7 1.6-.3.5-1 .7-1.7 1zM46.4 36.9l2 2.5c-.6.3-1.2 1-1.6.9-.7-.3-1.3-1-2-1.5l1.6-2z"/></svg>