<svg xmlns="http://www.w3.org/2000/svg" viewBox="0 0 1125.3 220.2"><path d="M66.7 34.9c32.2 0 57.7 17.8 65.3 8.9a8.5 8.5 0 0 0 1.3-4.5c0-8.9-29.8-22.2-66.6-22.2S0 30.4 0 39.3a8.4 8.4 0 0 0 1.3 4.5c7.6 8.9 33.1-9 65.4-9Z" style="fill:#f4900c"/><path d="M66.7 30.4c-27.7 0-47.2 8-54.6 11.7-2.1 1-2.4 3.7-1.8 5.7s47.5 120.4 47.5 120.4 4 9 8.9 9 8.9-9 8.9-9l47.5-121a4.9 4.9 0 0 0-2.5-5.4 127 127 0 0 0-54-11.4Z" style="fill:#ffcc4d"/><path d="M66.7 154.9a17.7 17.7 0 0 0-21.1-17.5l12.2 30.8.8 1.5a17.8 17.8 0 0 0 8-14.8ZM62.2 106a17.7 17.7 0 0 0-32.8-9.4L40 123A17.6 17.6 0 0 0 62.2 106Z" style="fill:#be1931"/><circle cx="57.8" cy="52.7" r="17.8" style="fill:#be1931"/><path d="M97.8 57.1a17.8 17.8 0 1 0 0 35.6 17.6 17.6 0 0 0 8.3-2.2l8.4-21.4a17.7 17.7 0 0 0-16.7-12ZM71 128.2a17.8 17.8 0 0 0 13.4 17.2l12.9-32.7a17.6 17.6 0 0 0-8.5-2.3A17.8 17.8 0 0 0 71 128.2Zm-40-57.8a17.8 17.8 0 0 0-17.8-17.7h-1.1l12.3 31.4a17.6 17.6 0 0 0 6.6-13.7Z" style="fill:#be1931"/><path d="M290.6 76.2a45.5 45.5 0 0 1-7.2 25.5q-7.3 11-20.8 17.2t-31.3 6.1h-13v45h-42.1V30h57.4q29.6 0 43.3 11.2t13.8 35ZM246 77.6q0-8.6-5-13t-14.7-4.4h-8v34.6h9.5q18.2 0 18.2-17.2ZM347.6 43a17.9 17.9 0 0 1-6.4 14.3q-6.4 5.5-16.9 5.5-10.1 0-16.6-5.7a18 18 0 0 1-6.5-14 17.4 17.4 0 0 1 6.3-14q6.3-5.3 16.8-5.3t16.9 5.3a17.3 17.3 0 0 1 6.4 14Zm-44 127V70h41.6v100ZM412.2 141.2h41.2V170h-95.8v-19.2l45-52h-40.8V70h90.8v23.7ZM518 141.2h41.2V170h-95.8v-19.2l45-52h-40.8V70h90.7v23.7ZM632.1 170v-15.2h-.4q-10 17.7-30.4 17.7-14.2 0-22.2-8.4t-8-22.5q0-29.5 36.2-34.2l24.9-3.2a9.5 9.5 0 0 0-4.4-8q-4.4-3.1-11.9-3.1-16.8 0-35.4 9.5v-27a94.7 94.7 0 0 1 20.3-5.7 118.7 118.7 0 0 1 20.9-2.3q25.5 0 37 11t11.5 36.3V170Zm-24.6-34a9.2 9.2 0 0 0 2.6 6.7c1.7 1.8 4.2 2.7 7.4 2.7a13.1 13.1 0 0 0 10.6-5q4-4.8 4-12.4v-3.8l-14 2q-10.6 1.7-10.6 9.8ZM852.5 166.2q-17.4 6.3-40.2 6.3-22.3 0-38.5-8.6a58.6 58.6 0 0 1-24.8-24.3q-8.6-15.8-8.6-36.4 0-22.2 9.6-39.4A66.2 66.2 0 0 1 777 37q17.6-9.5 40.3-9.5a139.9 139.9 0 0 1 35.2 4.4v39a49.5 49.5 0 0 0-14-5.5 69.9 69.9 0 0 0-16.4-2q-17.2 0-27.1 9.9t-10 26.8q0 16.7 10 26.5t26.5 9.7q15.3 0 31-7.8ZM925.9 170v-15.2h-.4q-10 17.7-30.5 17.7-14.1 0-22.1-8.4t-8-22.5q0-29.5 36.2-34.2l24.8-3.2a9.5 9.5 0 0 0-4.4-8q-4.4-3.1-11.8-3.1-16.8 0-35.5 9.5v-27a94.7 94.7 0 0 1 20.4-5.7 118.7 118.7 0 0 1 20.8-2.3q25.5 0 37 11t11.5 36.3V170Zm-24.6-34a9.2 9.2 0 0 0 2.6 6.7c1.7 1.8 4.2 2.7 7.4 2.7a13.1 13.1 0 0 0 10.5-5q4-4.8 4-12.4v-3.8l-14 2q-10.5 1.7-10.5 9.8ZM978.6 170V22h41.6v148ZM1118.7 167.2q-4 2.3-12.6 3.8a119.9 119.9 0 0 1-19.8 1.5 61 61 0 0 1-28.3-6.4 46.6 46.6 0 0 1-19.3-18 49.8 49.8 0 0 1-6.8-25.8q0-17.2 7.2-29.5a47.4 47.4 0 0 1 20.8-18.7q13.5-6.5 31.2-6.5a109 109 0 0 1 17.6 1.2q7.7 1.3 10 3v32.4a28.8 28.8 0 0 0-9-4.3 36.3 36.3 0 0 0-10.9-1.9q-12.2 0-18.5 5.9t-6.3 16.3q0 10.4 6.2 16t17 5.8a42.4 42.4 0 0 0 21.4-5.6Z" style="fill:#fff"/></svg>