<svg xmlns="http://www.w3.org/2000/svg" viewBox="0 0 1133.6 220.2"><path d="M73 25c35.2 0 63.1 19.5 71.4 9.8a9.2 9.2 0 0 0 1.4-4.9c0-9.7-32.6-24.3-72.9-24.3S0 20.2 0 30a9.3 9.3 0 0 0 1.5 4.9C9.7 44.5 37.6 25 72.9 25Z" style="fill:#f4900c"/><path d="M73 20.2c-30.3 0-51.7 8.8-59.7 12.7-2.4 1.2-2.7 4.1-2 6.2s52 131.8 52 131.8 4.3 9.7 9.7 9.7 9.7-9.7 9.7-9.7l52-132.3a5.3 5.3 0 0 0-2.7-6 138.3 138.3 0 0 0-59-12.4Z" style="fill:#ffcc4d"/><path d="M73 156.3a19.3 19.3 0 0 0-23.1-19l13.3 33.6 1 1.7a19.4 19.4 0 0 0 8.7-16.3Zm-5-53.5a19.4 19.4 0 0 0-35.8-10.3l11.5 29a19.3 19.3 0 0 0 5 .8A19.5 19.5 0 0 0 68 102.8Z" style="fill:#be1931"/><circle cx="63.2" cy="44.5" r="19.4" style="fill:#be1931"/><path d="M107 49.4a19.4 19.4 0 0 0 0 38.9 19.2 19.2 0 0 0 9-2.4l9.3-23.4a19.4 19.4 0 0 0-18.4-13.1ZM77.7 127A19.4 19.4 0 0 0 92.5 146l14-35.7a19.1 19.1 0 0 0-9.3-2.5A19.4 19.4 0 0 0 77.8 127ZM34 64a19.4 19.4 0 0 0-19.4-19.4l-1.3.1L26.8 79A19.3 19.3 0 0 0 34 64Z" style="fill:#be1931"/><path d="M298.9 76.2a45.5 45.5 0 0 1-7.3 25.5q-7.3 11-20.7 17.2t-31.4 6.1h-12.9v45h-42.2V30H242q29.5 0 43.3 11.2t13.7 35Zm-44.6 1.4q0-8.6-5-13t-14.7-4.4h-8v34.6h9.5q18.2 0 18.2-17.2ZM355.8 43a17.9 17.9 0 0 1-6.4 14.3q-6.4 5.5-16.8 5.5-10.2 0-16.7-5.7a18 18 0 0 1-6.5-14 17.4 17.4 0 0 1 6.3-14q6.3-5.3 16.9-5.3t16.8 5.3a17.3 17.3 0 0 1 6.4 14Zm-44 127V70h41.6v100ZM420.5 141.2h41.2V170h-95.8v-19.2l45-52H370V70h90.7v23.7ZM526.2 141.2h41.2V170h-95.7v-19.2l44.9-52h-40.8V70h90.8v23.7ZM640.4 170v-15.2h-.4q-10 17.7-30.5 17.7-14.1 0-22.1-8.4t-8-22.5q0-29.5 36.2-34.2l24.8-3.2a9.5 9.5 0 0 0-4.4-8q-4.4-3.1-11.8-3.1-16.8 0-35.5 9.5v-27a94.7 94.7 0 0 1 20.4-5.7 118.7 118.7 0 0 1 20.8-2.3q25.5 0 37 11t11.5 36.3V170Zm-24.6-34a9.2 9.2 0 0 0 2.6 6.7c1.7 1.8 4.2 2.7 7.4 2.7a13.1 13.1 0 0 0 10.5-5q4-4.8 4-12.4v-3.8l-14 2q-10.5 1.7-10.5 9.8ZM860.7 166.2q-17.4 6.3-40.1 6.3-22.4 0-38.6-8.6a58.6 58.6 0 0 1-24.8-24.3q-8.5-15.8-8.5-36.4 0-22.1 9.6-39.4a66.2 66.2 0 0 1 27-26.7q17.5-9.5 40.3-9.5a139.9 139.9 0 0 1 35.1 4.4v39a49.5 49.5 0 0 0-14-5.5 69.9 69.9 0 0 0-16.4-2q-17.2 0-27 9.9t-10 26.8q0 16.7 10 26.5t26.4 9.7q15.3 0 31-7.8ZM934.1 170v-15.2h-.4q-10 17.7-30.4 17.7-14.2 0-22.2-8.4t-8-22.5q0-29.5 36.2-34.2l24.9-3.2a9.5 9.5 0 0 0-4.4-8q-4.4-3.1-11.9-3.1-16.8 0-35.4 9.5v-27a94.7 94.7 0 0 1 20.3-5.7 118.7 118.7 0 0 1 20.9-2.3q25.5 0 37 11t11.5 36.3V170Zm-24.6-34a9.2 9.2 0 0 0 2.6 6.7c1.7 1.8 4.2 2.7 7.4 2.7a13.1 13.1 0 0 0 10.6-5q4-4.8 4-12.4v-3.8l-14 2q-10.6 1.7-10.6 9.8ZM986.9 170V22h41.6v148ZM1127 167.2q-4 2.3-12.7 3.8a119.9 119.9 0 0 1-19.8 1.5 61 61 0 0 1-28.3-6.4 46.6 46.6 0 0 1-19.3-18 49.8 49.8 0 0 1-6.8-25.8q0-17.2 7.3-29.5a47.4 47.4 0 0 1 20.7-18.7q13.5-6.5 31.3-6.5a109 109 0 0 1 17.5 1.2q7.8 1.3 10 3v32.4a28.8 28.8 0 0 0-9-4.3 36.3 36.3 0 0 0-10.8-1.9q-12.2 0-18.5 5.9t-6.3 16.3q0 10.4 6.2 16t17 5.8a42.4 42.4 0 0 0 21.4-5.6Z" style="fill:#fff"/></svg>