<?xml version="1.0" encoding="iso-8859-1"?>
<!-- Generator: Adobe Illustrator 27.5.0, SVG Export Plug-In . SVG Version: 6.00 Build 0)  -->
<svg version="1.1" id="&#x30EC;&#x30A4;&#x30E4;&#x30FC;_1"
	 xmlns="http://www.w3.org/2000/svg" xmlns:xlink="http://www.w3.org/1999/xlink" x="0px" y="0px" viewBox="0 0 1000 1000"
	 style="enable-background:new 0 0 1000 1000;" xml:space="preserve">
<g style="display:none;">
	<g style="display:inline;">
		<path d="M-1603.802-42.293c29.111,12.85,55.159,30.904,81.562,48.3c12.536,8.26,23.178,18.819,32.076,30.944
			c5.065,6.902,9.096,14.598,14.461,21.236c8.61,10.654,17.573,21.078,27.046,30.969c16.959,17.707,34.407,34.948,51.66,52.375
			c1.205,1.217,2.413,2.453,3.754,3.512c3.457,2.729,6.814,6.376,11.804,4.34c5.053-2.062,10.132-10.535,8.585-15.771
			c-1.751-5.926-4.682-11.628-7.869-16.968c-2.968-4.971-7.22-9.161-10.387-14.033c-2.207-3.396-4.057-7.215-5.153-11.102
			c-2.614-9.276,1.65-16.602,11.06-18.612c19.486-4.161,36.447-0.569,50.011,15.59c26.132,31.133,52.75,61.859,79.203,92.723
			c11.058,12.901,11.315,23.928,0.217,36.684c-9.072,10.428-19.499,19.038-32.491,24.568c-21.326,9.077-29.475,24.622-26.933,50.494
			c0.837,8.512,2.35,16.969,3.821,25.405c1.08,6.194,4.295,11.11,9.923,14.269c7.421,4.165,13.005,0.855,13.794-7.502
			c1.318-13.963,2.937-27.914,4.987-41.787c1.129-7.64,6.546-10.572,13.96-8.406c2.105,0.615,4.129,1.694,6.014,2.847
			c13.181,8.06,14.475,13.267,5.143,25.416c-6.391,8.32-10.711,17.553-13.877,27.314c-1.16,3.579-1.484,8.46,0.034,11.71
			c11.038,23.647,9.882,46.667-3.251,68.847c-6.79,11.467-14.267,22.676-22.634,33.033c-19.914,24.648-31.426,52.255-33.499,83.994
			c-2.358,36.107-19.948,63.616-50.857,81.571c-32.553,18.91-67.336,33.074-104.3,41.03c-18.412,3.963-37.067,2.911-54.946-2.805
			c-22.49-7.19-44.83-14.984-66.8-23.622c-25.574-10.055-43.757-29.102-57.949-52.029c-17.229-27.833-26.02-58.064-23.515-90.994
			c0.593-7.8,2.296-15.598,4.294-23.185c2.05-7.785,10.444-13.552,18.906-13.275c37.529,1.229,66.385-14.986,87.619-44.808
			c10.791-15.155,19.557-31.758,29.1-47.789c4.29-7.206,8.167-14.657,12.395-21.902c1.192-2.043,2.776-3.947,4.5-5.577
			c7.313-6.911,16.132-6.469,21.483,2.028c6.65,10.561,12.41,21.697,18.272,32.734c7.772,14.633,16.61,28.533,29.038,39.629
			c36.555,32.635,78.065,43.092,124.794,25.751c20.135-7.472,31.963-23.1,36.278-44.012c1.426-6.909-1.256-13.313-6.413-18.198
			c-5.005-4.741-13.25-2.525-17.517,4.156c-3.954,6.192-7.614,12.699-12.387,18.218c-13.469,15.573-31.465,20.104-50.854,16.946
			c-15.108-2.461-30.132-6.582-44.566-11.725c-15.361-5.473-26.092-17.404-32.476-32.101c-7.004-16.125-12.92-32.791-18.2-49.57
			c-3.615-11.489,1.147-21.659,9.31-29.949c11.658-11.84,25.404-19.652,42.443-20.659c8.901-0.526,17.79-1.272,26.68-1.97
			c1.873-0.147,4.002-0.047,5.514-0.922c1.558-0.902,3.338-2.777,3.487-4.37c0.145-1.547-1.276-4.127-2.68-4.755
			c-3.381-1.512-7.137-2.924-10.772-3.003c-16.117-0.349-32.256-0.621-48.364-0.147c-17.978,0.529-32.491,8.275-43.719,22.527
			c-16.339,20.742-35.909,22.44-52.718,2.359c-19.1-22.819-43.114-27.203-70.372-24.522c-7.676,0.755-15.398,1.561-23.09,1.482
			c-5.961-0.062-10.522,1.916-14.444,5.989c7.589,5.74,16.84,4.919,25.457,6.597c14.357,2.797,28.313,6.664,40.983,14.379
			c17.691,10.773,25.797,26.829,24.911,47.021c-1.552,35.359-16.414,63.802-46.844,82.788
			c-21.121,13.179-44.143,17.269-68.588,10.733c-7.54-2.016-13.513-6.163-18.385-12.361c-22.256-28.309-44.821-56.375-66.997-84.747
			c-10.052-12.86-18.77-26.588-23.744-42.379c-7.933-25.185-0.918-47.958,20.189-63.978c8.298-6.298,13.406-14.434,16.236-24.289
			c1.365-4.754,2.614-9.64,4.77-14.05c4.786-9.79,13.159-13.78,23.823-11.754c3.514,0.668,7.119,1.552,10.309,3.102
			c11.266,5.476,23.179,8.181,35.548,9.537c14.024,1.538,23.435-4.162,27.38-17.645c3.747-12.807,6.633-25.874,10.614-38.603
			c4.504-14.402,9.932-28.468,19.846-40.301c13.274-15.844,30.069-19.858,48.142-9.689c10.045,5.652,19.695,12.665,27.987,20.656
			c37.184,35.832,73.82,72.231,110.643,108.437c5.083,4.998,11.137,6.014,16.132,2.141c1.138-0.882,2.049-3.708,1.48-4.854
			c-2.553-5.141-4.943-10.656-8.708-14.857c-38.921-43.425-77.951-86.754-117.298-129.792c-10.55-11.539-22.781-21.287-37.27-27.852
			c-21.591-9.783-41.392-4.454-53.951,15.707c-5.014,8.049-9.231,16.941-11.95,26.006c-7.667,25.566-14.379,51.419-21.438,77.167
			c-0.724,2.64-1.081,5.388-1.902,7.993c-2.096,6.651-8.401,9.818-15.091,7.74c-16.144-5.015-23.711-23.129-16.628-38.416
			c12.885-27.806,24.739-56.106,38.229-83.609c8.872-18.088,19.651-35.263,29.974-52.611c6.123-10.29,14.614-18.098,26.683-21.136
			C-1609.981-42.293-1606.891-42.293-1603.802-42.293z"/>
		<path d="M-1073.92,766.303c-0.274,10.491-4.892,17.87-11.147,24.209c-4.8,4.864-9.799,9.758-15.457,13.515
			c-38.852,25.793-77.925,51.462-120.831,70.035c-37.069,16.046-75.238,29.532-112.636,44.843
			c-23.595,9.66-46.526,20.934-70.054,30.77c-7.756,3.243-16.37,4.685-24.732,6.152c-7.235,1.269-14.683,2.031-22.009,1.856
			c-6.241-0.149-12.492-1.726-18.654-3.061c-40.502-8.778-81.46-14.004-122.879-14.913c-13.295-0.292-25.305-3.121-36.464-10.363
			c-11.496-7.461-23.344-14.381-34.884-21.776c-3.285-2.105-6.183-4.891-9.005-7.625c-7.036-6.817-8.915-15.209-5.148-24.028
			c3.748-8.775,8.259-17.294,13.156-25.495c20.532-34.387,43.353-67.124,71.524-95.81c9.129-9.296,18.573-18.308,28.266-27.013
			c4.677-4.201,10.091-7.671,15.479-10.972c7.88-4.827,15.703-3.71,22.21,2.478c5.562,5.29,10.535,11.251,15.383,17.227
			c9.984,12.307,20.669,23.853,33.794,32.902c29.802,20.547,61.497,18.623,87.583-6.443c9.808-9.425,18.592-20.215,26.339-31.421
			c17.343-25.086,30.385-52.347,38.522-81.903c2.722-9.886,8.844-17.483,19.461-19.979c2.895-0.681,6.296-0.925,9.082-0.093
			c38.382,11.467,77.412,20.926,114.486,36.49c36.481,15.315,68.584,36.62,93.171,68.161c6.977,8.95,13.767,18.037,15.18,29.833
			C-1074.042,765.066-1073.925,766.258-1073.92,766.303z"/>
		<path d="M-1440.5,755.358c-24.895-0.307-47.628-15.628-56.063-36.246c-3.188-7.793-0.676-17.016,6.335-22.013
			c33.382-23.793,70.159-39.783,110.464-47.452c2.028-0.386,4.852,0.408,6.524,1.679c6.665,5.066,10.135,11.105,7.677,20.275
			c-8.086,30.164-24.232,54.914-48.51,74.364C-1422.364,752.606-1432.149,755.547-1440.5,755.358z"/>
	</g>
	<rect x="-1961.957" y="-42.293" style="display:inline;fill:#2ECC71;" width="1000" height="166.667"/>
	<rect x="-1961.957" y="124.852" style="display:inline;fill:#F1C40F;" width="1000" height="166.667"/>
	<rect x="-1961.957" y="291.041" style="display:inline;fill:#E67E22;" width="1000" height="166.667"/>
	<rect x="-1961.957" y="457.707" style="display:inline;fill:#E74C3C;" width="1000" height="166.667"/>
	<rect x="-1961.957" y="624.852" style="display:inline;fill:#8E44AD;" width="1000" height="166.667"/>
	<rect x="-1961.957" y="791.041" style="display:inline;fill:#3498DB;" width="1000" height="166.667"/>
</g>
<g>
	<path style="fill:#3498DB;" d="M284.134,918.208c-3.767,8.819-1.887,17.211,5.148,24.028c2.822,2.735,5.72,5.52,9.005,7.625
		c11.541,7.395,23.388,14.315,34.884,21.776c11.158,7.242,23.169,10.071,36.464,10.363c41.419,0.909,82.377,6.135,122.879,14.913
		c6.162,1.335,12.413,2.912,18.654,3.061c7.326,0.175,14.774-0.587,22.009-1.856c8.362-1.467,16.976-2.909,24.732-6.152
		c23.528-9.837,46.459-21.11,70.054-30.77c37.398-15.312,75.568-28.798,112.636-44.843c42.906-18.573,81.979-44.242,120.831-70.035
		c5.267-3.497,9.96-7.98,14.457-12.507H336.865c-14.417,18.723-27.404,38.518-39.574,58.901
		C292.394,900.914,287.882,909.433,284.134,918.208z"/>
	<g>
		<g>
			<path style="fill:#2ECC71;" d="M576.752,115.189c-9.41,2.01-13.674,9.336-11.06,18.612c1.096,3.887,2.946,7.707,5.153,11.102
				c3.167,4.872,7.419,9.062,10.387,14.033c1.493,2.501,2.924,5.084,4.209,7.73h71.769c-10.193-11.926-20.362-23.872-30.448-35.887
				C613.199,114.62,596.238,111.027,576.752,115.189z"/>
			<path style="fill:#2ECC71;" d="M486.253,100.48c-5.364-6.638-9.395-14.334-14.461-21.236
				c-8.899-12.125-19.54-22.685-32.076-30.944C413.313,30.904,387.265,12.85,358.154,0h-9.268
				c-12.069,3.039-20.56,10.847-26.683,21.136c-10.323,17.347-21.102,34.522-29.974,52.61
				c-13.49,27.503-25.344,55.803-38.229,83.609c-1.406,3.034-2.226,6.179-2.525,9.311h39.784
				c5.771-21.314,11.459-42.652,17.8-63.795c2.719-9.066,6.935-17.957,11.95-26.006c12.559-20.161,32.36-25.49,53.951-15.707
				c14.489,6.565,26.72,16.313,37.27,27.852c23.581,25.792,47.039,51.697,70.436,77.656h65.234
				c-11.616-11.661-23.219-23.333-34.602-35.218C503.826,121.558,494.863,111.134,486.253,100.48z"/>
			<path style="fill:#2ECC71;" d="M381.994,107.279c-18.073-10.169-34.867-6.155-48.142,9.689
				c-9.913,11.833-15.342,25.899-19.846,40.301c-0.974,3.115-1.881,6.251-2.753,9.397H449.78
				c-13.223-12.956-26.469-25.887-39.799-38.732C401.689,119.944,392.039,112.932,381.994,107.279z"/>
		</g>
	</g>
	<g>
		<g>
			<path style="fill:#8E44AD;" d="M476.059,692.696c26.259-5.651,51.41-14.45,75.449-25.843h-195.69
				c21.486,8.404,43.318,16.013,65.295,23.038C438.992,695.606,457.647,696.658,476.059,692.696z"/>
			<path style="fill:#8E44AD;" d="M888.08,808.303c-0.005-0.046-0.122-1.237-0.264-2.426c-1.414-11.796-8.203-20.883-15.18-29.833
				c-24.588-31.541-56.691-52.846-93.171-68.161c-37.074-15.564-76.103-25.024-114.486-36.49c-2.787-0.833-6.187-0.588-9.082,0.093
				c-10.618,2.496-16.74,10.094-19.461,19.979c-8.137,29.556-21.179,56.818-38.522,81.903
				c-7.747,11.206-16.531,21.997-26.339,31.421c-26.086,25.066-57.782,26.99-87.583,6.443
				c-13.125-9.049-23.809-20.595-33.794-32.902c-4.848-5.976-9.821-11.937-15.383-17.227c-6.506-6.188-14.33-7.305-22.21-2.478
				c-5.388,3.3-10.802,6.771-15.479,10.972c-9.693,8.705-19.137,17.717-28.266,27.013c-11.472,11.682-22.045,24.045-31.95,36.909
				h539.025c0.333-0.336,0.669-0.671,1-1.007C883.188,826.173,887.806,818.794,888.08,808.303z"/>
			<path style="fill:#8E44AD;" d="M588.76,693.326c-1.672-1.271-4.496-2.065-6.524-1.679
				c-40.305,7.669-77.082,23.659-110.464,47.452c-7.011,4.997-9.523,14.22-6.335,22.013c8.435,20.619,31.168,35.94,56.063,36.246
				c8.351,0.188,18.136-2.753,26.427-9.395c24.278-19.449,40.425-44.2,48.51-74.364C598.895,704.431,595.425,698.391,588.76,693.326
				z"/>
		</g>
	</g>
	<g>
		<g>
			<path style="fill:#E74C3C;" d="M631.173,570.094c1.7-26.027,9.757-49.271,23.579-70.387h-377.54
				c-0.035,0.119-0.081,0.233-0.113,0.353c-1.998,7.587-3.701,15.385-4.294,23.185c-2.504,32.93,6.287,63.161,23.515,90.994
				c14.192,22.927,32.375,41.974,57.949,52.029c0.09,0.036,0.181,0.07,0.272,0.105h197.926c9.454-4.515,18.742-9.419,27.848-14.709
				C611.225,633.711,628.815,606.201,631.173,570.094z"/>
		</g>
	</g>
	<g>
		<g>
			<path style="fill:#E67E22;" d="M687.306,453.36c13.133-22.18,14.289-45.2,3.251-68.847c-1.517-3.251-1.194-8.131-0.033-11.71
				c3.165-9.762,7.486-18.994,13.877-27.314c3.841-5.001,5.877-8.824,6.03-12.155h-32.225c-1.545,11.331-2.834,22.703-3.909,34.086
				c-0.789,8.357-6.373,11.667-13.793,7.502c-5.629-3.159-8.843-8.075-9.923-14.269c-1.471-8.436-2.985-16.892-3.821-25.405
				c-0.063-0.646-0.115-1.281-0.165-1.915H477.836c-2.204,5.39-2.737,11.259-0.766,17.524c5.28,16.779,11.196,33.445,18.2,49.57
				c6.384,14.697,17.115,26.628,32.476,32.101c14.434,5.143,29.458,9.264,44.566,11.725c19.389,3.158,37.385-1.373,50.854-16.946
				c4.773-5.519,8.432-12.026,12.387-18.218c4.267-6.682,12.512-8.897,17.517-4.156c5.157,4.886,7.839,11.289,6.413,18.198
				c-4.315,20.912-16.143,36.54-36.278,44.012c-46.729,17.341-88.239,6.884-124.794-25.751
				c-12.428-11.095-21.266-24.995-29.038-39.629c-5.862-11.037-11.622-22.173-18.272-32.734c-5.351-8.498-14.17-8.939-21.483-2.028
				c-1.724,1.629-3.307,3.533-4.5,5.577c-4.228,7.245-8.105,14.695-12.395,21.902c-9.543,16.031-18.309,32.634-29.1,47.789
				c-21.234,29.823-50.09,46.037-87.619,44.808c-8.332-0.273-16.584,5.319-18.793,12.922h377.54
				c3.034-4.635,6.335-9.171,9.92-13.607C673.039,476.036,680.516,464.827,687.306,453.36z"/>
			<path style="fill:#E67E22;" d="M255.878,442.074c4.873,6.198,10.845,10.345,18.385,12.361
				c24.444,6.535,47.467,2.445,68.588-10.733c30.43-18.986,45.292-47.43,46.844-82.788c0.454-10.33-1.463-19.569-5.796-27.581
				H172.945c4.515,8.466,9.988,16.384,15.936,23.994C211.057,385.699,233.622,413.765,255.878,442.074z"/>
		</g>
	</g>
	<g>
		<g>
			<path style="fill:#F1C40F;" d="M699.257,319.78c-1.885-1.153-3.909-2.232-6.014-2.847c-7.414-2.166-12.831,0.766-13.96,8.406
				c-0.402,2.723-0.775,5.451-1.145,8.179h32.254C710.882,328.528,707.27,324.68,699.257,319.78z"/>
			<path style="fill:#F1C40F;" d="M270.628,195.479c6.69,2.078,12.995-1.089,15.091-7.74c0.821-2.605,1.179-5.353,1.902-7.993
				c1.178-4.295,2.344-8.594,3.509-12.894h-39.697C250.455,179.336,257.851,191.51,270.628,195.479z"/>
			<path style="fill:#F1C40F;" d="M673.691,284.461c12.992-5.53,23.419-14.14,32.491-24.568
				c11.098-12.757,10.841-23.783-0.217-36.684c-16.107-18.793-32.264-37.543-48.347-56.357h-71.941
				c1.361,2.852,2.542,5.777,3.424,8.76c1.547,5.236-3.532,13.709-8.585,15.771c-4.99,2.036-8.348-1.611-11.804-4.34
				c-1.34-1.058-2.548-2.294-3.754-3.512c-5.516-5.571-11.049-11.125-16.582-16.679h-65.279
				c15.5,17.198,30.979,34.417,46.431,51.657c3.765,4.201,6.156,9.716,8.708,14.857c0.569,1.146-0.342,3.971-1.48,4.854
				c-4.996,3.873-11.049,2.858-16.132-2.141c-23.461-23.067-46.858-46.2-70.357-69.227H311.121
				c-2.635,9.556-4.945,19.213-7.729,28.728c-3.945,13.484-13.356,19.183-27.38,17.645c-12.369-1.356-24.282-4.061-35.548-9.537
				c-3.191-1.551-6.795-2.435-10.309-3.102c-10.664-2.026-19.037,1.964-23.823,11.754c-2.156,4.409-3.404,9.295-4.77,14.05
				c-2.83,9.855-7.938,17.991-16.236,24.289c-21.107,16.02-28.122,38.793-20.189,63.978c2.086,6.622,4.837,12.878,8.062,18.863
				h210.972c-4.128-7.858-10.565-14.546-19.388-19.918c-12.67-7.715-26.626-11.582-40.983-14.379
				c-8.617-1.679-17.868-0.857-25.457-6.597c3.923-4.073,8.484-6.05,14.444-5.989c7.692,0.08,15.413-0.727,23.089-1.482
				c27.258-2.681,51.272,1.703,70.372,24.522c16.809,20.081,36.378,18.384,52.718-2.359c11.227-14.252,25.741-21.999,43.719-22.527
				c16.108-0.474,32.247-0.202,48.364,0.147c3.635,0.079,7.391,1.491,10.772,3.003c1.404,0.628,2.825,3.208,2.68,4.755
				c-0.149,1.593-1.928,3.469-3.487,4.37c-1.512,0.875-3.642,0.775-5.514,0.922c-8.89,0.698-17.779,1.444-26.679,1.97
				c-17.039,1.007-30.785,8.819-42.443,20.659c-3.842,3.903-6.915,8.226-8.731,12.903h168.985
				C644.533,308.51,652.765,293.368,673.691,284.461z"/>
		</g>
	</g>
</g>
</svg>
